<?xml version="1.0" encoding="UTF-8"?>
<svg id="Layer_1" xmlns="http://www.w3.org/2000/svg" version="1.1" viewBox="0 0 306.4 208.6">
  <!-- Generator: Adobe Illustrator 29.6.1, SVG Export Plug-In . SVG Version: 2.1.1 Build 9)  -->
  <defs>
    <style>
      .st0 {
        stroke: #00b3e6;
      }

      .st0, .st1, .st2, .st3 {
        stroke-miterlimit: 10;
      }

      .st0, .st2, .st3 {
        fill: none;
        stroke-linecap: round;
        stroke-width: 6.1px;
      }

      .st1 {
        fill: #4d4e56;
        stroke: #4d4e56;
        stroke-width: 1.7px;
      }

      .st2 {
        stroke: #e7a024;
      }

      .st3 {
        stroke: #0069a7;
      }
    </style>
  </defs>
  <g>
    <path class="st1" d="M1.4,186.7c-.4-.6-.6-1.2-.6-1.8,0-.6.3-1,.9-1.4.4-.3.9-.5,1.4-.4.5,0,1,.3,1.5.7,1.3,1.7,3,3.2,4.9,4.2,1.9,1.1,4.2,1.6,6.9,1.6s2.8-.2,4.2-.7c1.4-.5,2.5-1.2,3.4-2.2.9-1,1.3-2.2,1.3-3.7s-.4-2.8-1.3-3.7c-.9-.9-2.1-1.7-3.5-2.2-1.4-.5-2.9-1-4.5-1.4-1.7-.4-3.3-1-4.9-1.5-1.6-.6-3-1.3-4.2-2.2-1.2-.9-2.2-1.9-3-3.2-.7-1.2-1.1-2.8-1.1-4.6s.6-3.9,1.7-5.5c1.1-1.6,2.7-2.8,4.7-3.7,2-.9,4.2-1.3,6.7-1.3s2.6.2,4,.5c1.4.3,2.9.9,4.3,1.6,1.4.7,2.6,1.8,3.7,3.1.4.4.7,1,.7,1.5s-.3,1.1-.7,1.5c-.4.3-.9.4-1.4.4s-1-.2-1.3-.6c-1.2-1.3-2.6-2.4-4.3-3.1-1.6-.7-3.4-1-5.3-1s-2.8.2-4.1.7c-1.3.5-2.3,1.2-3.2,2.1-.8.9-1.3,2.2-1.3,3.7,0,1.4.6,2.6,1.5,3.5.9.9,2.1,1.6,3.7,2.2,1.5.6,3.2,1.1,5.1,1.6,1.6.4,3.1.9,4.6,1.4,1.5.5,2.8,1.2,3.9,2.1,1.1.8,2,1.9,2.7,3.1.7,1.2,1,2.8,1,4.7s-.6,4.1-1.8,5.7c-1.2,1.6-2.9,2.8-4.9,3.7-2,.8-4.3,1.3-6.8,1.3s-5.3-.5-7.8-1.6c-2.5-1-4.8-2.8-6.7-5.2Z"/>
    <path class="st1" d="M58,148.8c-1,0-1.8-.2-2.4-.7-.5-.5-.8-1.2-.8-2.1v-.7c0-.9.3-1.6.9-2.1.6-.5,1.4-.7,2.4-.7s1.7.2,2.2.7c.5.5.8,1.2.8,2.1v.7c0,.9-.3,1.6-.8,2.1-.5.5-1.3.7-2.3.7ZM60.3,190.5c0,.6-.2,1.1-.7,1.6s-1,.7-1.6.7-1.2-.2-1.6-.7c-.4-.4-.6-1-.6-1.6v-34.4c0-.6.2-1.1.6-1.6.4-.4,1-.7,1.6-.7s1.2.2,1.6.7c.4.4.6,1,.6,1.6v34.4Z"/>
    <path class="st1" d="M104.8,153.6c2.2,0,4.2.4,6.1,1.2,1.9.8,3.6,1.8,5,3,1.4,1.2,2.5,2.5,3.3,3.9.8,1.4,1.2,2.7,1.2,3.9l-1.2-1.8v-7c0-.6.2-1.2.6-1.6.4-.4,1-.7,1.6-.7s1.2.2,1.6.7c.4.4.6,1,.6,1.6v32.4c0,4-.8,7.4-2.5,10.1-1.6,2.7-3.9,4.8-6.7,6.3-2.8,1.4-6,2.1-9.6,2.1s-3.6-.2-5.5-.7c-1.9-.4-3.6-1-4.9-1.7-1.4-.7-2.2-1.4-2.4-2.2-.3-.4-.5-.9-.5-1.3,0-.4.2-.8.6-1.1.4-.3,1-.4,1.5-.1.6.3,1.4.6,2.5,1.1.4.1,1.1.4,2,.7.9.3,1.9.6,3.1.8,1.2.2,2.4.3,3.6.3,4.5,0,8-1.3,10.5-3.9,2.5-2.6,3.7-6,3.7-10.1v-7.2l.8.2c-.4,1.8-1.2,3.4-2.2,4.7s-2.3,2.5-3.7,3.4c-1.4.9-2.9,1.6-4.5,2.1-1.6.5-3.2.7-4.8.7-3.4,0-6.6-.9-9.3-2.6-2.8-1.7-5-4.1-6.6-7.1-1.6-3-2.4-6.4-2.4-10.3s.8-7.2,2.4-10.2c1.6-3,3.8-5.4,6.5-7.1,2.7-1.7,5.8-2.6,9.3-2.6ZM105.3,157.8c-2.7,0-5.1.7-7.3,2.1-2.2,1.4-3.9,3.2-5.1,5.6-1.2,2.4-1.8,5.1-1.8,8s.6,5.7,1.8,8.1c1.2,2.4,2.9,4.3,5.1,5.7,2.2,1.4,4.6,2.1,7.3,2.1s5.2-.7,7.3-2c2.1-1.3,3.8-3.2,5.1-5.6,1.2-2.4,1.9-5.1,1.9-8.2s-.6-5.8-1.9-8.2c-1.2-2.4-2.9-4.2-5.1-5.5-2.1-1.3-4.6-2-7.3-2Z"/>
    <path class="st1" d="M170.9,153.6c3.3,0,5.9.7,7.9,2,2,1.3,3.4,3.1,4.3,5.4.9,2.3,1.3,4.8,1.3,7.5v22c0,.6-.2,1.1-.7,1.6s-1,.7-1.6.7-1.2-.2-1.6-.7c-.4-.4-.6-1-.6-1.6v-21.8c0-2-.3-3.8-1-5.5-.6-1.6-1.7-3-3.2-4-1.5-1-3.4-1.5-5.8-1.5s-4.2.5-6.1,1.5c-1.9,1-3.5,2.3-4.7,4-1.2,1.6-1.8,3.5-1.8,5.5v21.8c0,.6-.2,1.1-.7,1.6s-1,.7-1.6.7-1.2-.2-1.6-.7c-.4-.4-.6-1-.6-1.6v-33.5c0-.6.2-1.1.6-1.6.4-.4,1-.7,1.6-.7s1.2.2,1.6.7c.4.4.6,1,.6,1.6v6.3l-1.7,2.7c0-1.6.6-3.1,1.5-4.6.9-1.5,2.1-2.8,3.6-4,1.4-1.2,3.1-2.1,4.8-2.8,1.8-.7,3.6-1,5.4-1Z"/>
    <path class="st1" d="M244.4,154.5c.6,0,1.2.2,1.6.7.4.4.6,1,.6,1.6v33.7c0,.6-.2,1.1-.7,1.6s-1,.7-1.6.7-1.2-.2-1.6-.7c-.4-.4-.6-1-.6-1.6v-8.9l1.3-.6c0,1.4-.4,2.8-1.2,4.3-.8,1.4-1.8,2.8-3.2,4-1.3,1.2-2.9,2.3-4.8,3-1.8.8-3.8,1.2-6,1.2-3.3,0-6.4-.9-9-2.6-2.7-1.7-4.8-4.1-6.3-7.2-1.5-3-2.3-6.5-2.3-10.3s.8-7.3,2.3-10.3c1.5-3,3.6-5.3,6.3-7,2.6-1.7,5.6-2.5,8.9-2.5s4.2.4,6,1.1c1.9.7,3.5,1.8,4.9,3.1,1.4,1.3,2.5,2.8,3.3,4.5.8,1.7,1.2,3.4,1.2,5.2l-1.6-1.1v-9.5c0-.6.2-1.2.6-1.6.4-.4.9-.7,1.6-.7ZM228.8,189.3c2.6,0,5-.7,7-2.1,2-1.4,3.7-3.3,4.8-5.7,1.2-2.4,1.8-5.1,1.8-8.1s-.6-5.6-1.8-7.9c-1.2-2.3-2.8-4.2-4.8-5.6-2-1.4-4.4-2.1-7-2.1s-4.9.7-7,2c-2.1,1.3-3.7,3.2-4.9,5.5-1.2,2.3-1.8,5-1.8,8.1s.6,5.7,1.7,8.1c1.1,2.4,2.8,4.3,4.8,5.7,2.1,1.4,4.4,2.1,7.1,2.1Z"/>
    <path class="st1" d="M292.2,153.6c2.4,0,4.6.3,6.6.8,2,.5,3.6,1.2,4.8,2.1,1.2.9,1.8,1.9,1.8,2.9s-.2,1-.6,1.5c-.4.5-.8.7-1.4.7s-1.2-.1-1.5-.4c-.4-.3-.7-.6-1.1-1-.4-.4-.9-.8-1.6-1.1-.6-.3-1.6-.6-2.8-.8-1.2-.2-2.6-.4-4.1-.4-2.8,0-5.3.7-7.6,2.1-2.2,1.4-4,3.3-5.3,5.7-1.3,2.4-1.9,5-1.9,8s.6,5.7,1.8,8.1c1.2,2.4,2.9,4.3,5.2,5.7,2.2,1.4,4.8,2.1,7.7,2.1s3.6-.2,4.7-.5c1.1-.3,2.1-.7,2.8-1.2,1-.5,1.7-1.1,2.1-1.6.4-.5,1-.8,1.7-.8s1.1.2,1.4.6c.3.4.5.9.5,1.5s-.6,1.7-1.8,2.7c-1.2,1-2.8,1.8-4.8,2.5-2,.7-4.4,1.1-7.1,1.1s-7-.9-9.8-2.6c-2.8-1.7-5-4.1-6.6-7.2-1.6-3-2.4-6.4-2.4-10.2s.8-7,2.4-10c1.6-3,3.8-5.4,6.7-7.2,2.8-1.8,6.2-2.7,10-2.7Z"/>
  </g>
  <g>
    <line class="st0" x1="172.2" y1="121.8" x2="185.9" y2="110"/>
    <line class="st3" x1="223.4" y1="64.6" x2="230.2" y2="58.7"/>
    <line class="st3" x1="167.2" y1="112.8" x2="185.8" y2="96.8"/>
    <line class="st2" x1="152.1" y1="125.8" x2="160.8" y2="118.3"/>
    <line class="st0" x1="205.8" y1="66.4" x2="230.2" y2="45.5"/>
    <line class="st3" x1="164.2" y1="102.1" x2="180.4" y2="88.3"/>
    <line class="st0" x1="135.9" y1="126.4" x2="157" y2="108.3"/>
    <line class="st3" x1="213.7" y1="46.5" x2="226.5" y2="35.5"/>
    <line class="st0" x1="186.4" y1="69.9" x2="206.7" y2="52.4"/>
    <line class="st0" x1="161.8" y1="91.1" x2="175.5" y2="79.3"/>
    <line class="st3" x1="153.2" y1="98.4" x2="155.1" y2="96.8"/>
    <line class="st0" x1="122.4" y1="124.9" x2="146.5" y2="104.2"/>
    <line class="st2" x1="218" y1="29.5" x2="220.4" y2="27.5"/>
    <line class="st3" x1="192.2" y1="51.7" x2="209.8" y2="36.6"/>
    <line class="st2" x1="169.3" y1="71.4" x2="184.7" y2="58.2"/>
    <line class="st0" x1="132" y1="103.4" x2="162.8" y2="77"/>
    <line class="st3" x1="110.6" y1="121.8" x2="124.4" y2="110"/>
    <line class="st0" x1="200.7" y1="31.2" x2="212.9" y2="20.7"/>
    <line class="st2" x1="175" y1="53.3" x2="195" y2="36.1"/>
    <line class="st3" x1="165.5" y1="61.4" x2="168.8" y2="58.6"/>
    <line class="st0" x1="137.9" y1="85.1" x2="148.9" y2="75.7"/>
    <line class="st3" x1="109" y1="110" x2="130.6" y2="91.4"/>
    <line class="st0" x1="100.4" y1="117.3" x2="102.1" y2="115.9"/>
    <line class="st0" x1="185.9" y1="30.7" x2="204.2" y2="15"/>
    <line class="st0" x1="159.6" y1="53.3" x2="179" y2="36.6"/>
    <line class="st2" x1="111.1" y1="94.9" x2="138.6" y2="71.3"/>
    <line class="st0" x1="91.5" y1="111.8" x2="104" y2="101"/>
    <line class="st2" x1="189.2" y1="14.7" x2="194.3" y2="10.3"/>
    <line class="st3" x1="159.6" y1="40.1" x2="182.7" y2="20.3"/>
    <line class="st0" x1="145.1" y1="52.5" x2="153.5" y2="45.3"/>
    <line class="st3" x1="121.4" y1="72.8" x2="137.9" y2="58.7"/>
    <line class="st0" x1="99" y1="92.1" x2="114" y2="79.2"/>
    <line class="st2" x1="83.8" y1="105.2" x2="92.2" y2="98"/>
    <line class="st3" x1="168.3" y1="19.4" x2="183.1" y2="6.7"/>
    <line class="st2" x1="143" y1="41.1" x2="161.7" y2="25"/>
    <line class="st0" x1="104.4" y1="74.2" x2="135.9" y2="47.2"/>
    <line class="st3" x1="96.4" y1="81.1" x2="97.7" y2="80"/>
    <line class="st0" x1="77.3" y1="97.5" x2="89.9" y2="86.7"/>
    <line class="st0" x1="143.5" y1="27.5" x2="170.6" y2="4.2"/>
    <line class="st3" x1="129.6" y1="39.4" x2="136.9" y2="33.1"/>
    <line class="st0" x1="101.2" y1="63.8" x2="122.7" y2="45.3"/>
    <line class="st3" x1="72.2" y1="88.7" x2="93" y2="70.8"/>
    <line class="st3" x1="145.1" y1="12.9" x2="156.6" y2="3"/>
    <line class="st0" x1="113.1" y1="40.3" x2="137.5" y2="19.4"/>
    <line class="st3" x1="85.8" y1="63.8" x2="106" y2="46.5"/>
    <line class="st2" x1="68.6" y1="78.5" x2="79.2" y2="69.4"/>
    <line class="st3" x1="109.9" y1="29.9" x2="140.8" y2="3.4"/>
    <line class="st0" x1="91.7" y1="45.5" x2="103.7" y2="35.2"/>
    <line class="st0" x1="67.2" y1="66.5" x2="85.2" y2="51.1"/>
    <line class="st2" x1="110.6" y1="16.1" x2="122.7" y2="5.7"/>
    <line class="st3" x1="79.6" y1="42.7" x2="104" y2="21.7"/>
    <line class="st2" x1="69.1" y1="51.7" x2="73.1" y2="48.3"/>
    <line class="st0" x1="81" y1="28.3" x2="96.2" y2="15.2"/>
  </g>
</svg>