<?xml version="1.0" encoding="UTF-8"?>
<svg id="Layer_1" xmlns="http://www.w3.org/2000/svg" version="1.1" viewBox="0 0 306.3 223.6">
  <!-- Generator: Adobe Illustrator 29.6.1, SVG Export Plug-In . SVG Version: 2.1.1 Build 9)  -->
  <defs>
    <style>
      .st0 {
        stroke: #0069a7;
      }

      .st0, .st1, .st2, .st3 {
        stroke-miterlimit: 10;
      }

      .st0, .st1, .st3 {
        fill: none;
        stroke-linecap: round;
        stroke-width: 6.1px;
      }

      .st1 {
        stroke: #e7a024;
      }

      .st2 {
        fill: #4d4e56;
        stroke: #4d4e56;
        stroke-width: 1.7px;
      }

      .st3 {
        stroke: #00b3e6;
      }
    </style>
  </defs>
  <g>
    <path class="st2" d="M1.5,201.7c-.4-.6-.6-1.2-.6-1.8s.3-1,.9-1.4c.4-.3.9-.5,1.4-.4.5,0,1,.3,1.5.7,1.3,1.7,3,3.2,4.9,4.2,1.9,1.1,4.2,1.6,6.9,1.6s2.8-.2,4.2-.7,2.5-1.2,3.4-2.2,1.3-2.2,1.3-3.7-.4-2.8-1.3-3.7-2.1-1.7-3.5-2.2-2.9-1-4.5-1.4c-1.7-.4-3.3-1-4.9-1.5-1.6-.6-3-1.3-4.2-2.2s-2.2-1.9-3-3.2c-.7-1.2-1.1-2.8-1.1-4.6s.6-3.9,1.7-5.5c1.1-1.6,2.7-2.8,4.7-3.7s4.2-1.3,6.7-1.3,2.6.2,4,.5,2.9.9,4.3,1.6c1.4.7,2.6,1.8,3.7,3.1.4.4.7,1,.7,1.5s-.3,1.1-.7,1.5c-.4.3-.9.4-1.4.4s-1-.2-1.3-.6c-1.2-1.3-2.6-2.4-4.3-3.1-1.6-.7-3.4-1-5.3-1s-2.8.2-4.1.7c-1.3.5-2.3,1.2-3.2,2.1-.8.9-1.3,2.2-1.3,3.7s.6,2.6,1.5,3.5c.9.9,2.1,1.6,3.7,2.2,1.5.6,3.2,1.1,5.1,1.6,1.6.4,3.1.9,4.6,1.4s2.8,1.2,3.9,2.1c1.1.8,2,1.9,2.7,3.1.7,1.2,1,2.8,1,4.7s-.6,4.1-1.8,5.7c-1.2,1.6-2.9,2.8-4.9,3.7-2,.8-4.3,1.3-6.8,1.3s-5.3-.5-7.8-1.6c-2.5-1-4.8-2.8-6.7-5.2h0Z"/>
    <path class="st2" d="M58.1,163.9c-1,0-1.8-.2-2.4-.7-.5-.5-.8-1.2-.8-2.1v-.7c0-.9.3-1.6.9-2.1.6-.5,1.4-.7,2.4-.7s1.7.2,2.2.7.8,1.2.8,2.1v.7c0,.9-.3,1.6-.8,2.1s-1.3.7-2.3.7ZM60.3,205.5c0,.6-.2,1.1-.7,1.6s-1,.7-1.6.7-1.2-.2-1.6-.7c-.4-.4-.6-1-.6-1.6v-34.4c0-.6.2-1.1.6-1.6.4-.4,1-.7,1.6-.7s1.2.2,1.6.7c.4.4.6,1,.6,1.6v34.4h.1Z"/>
    <path class="st2" d="M104.9,168.7c2.2,0,4.2.4,6.1,1.2s3.6,1.8,5,3,2.5,2.5,3.3,3.9,1.2,2.7,1.2,3.9l-1.2-1.8v-7c0-.6.2-1.2.6-1.6.4-.4,1-.7,1.6-.7s1.2.2,1.6.7c.4.4.6,1,.6,1.6v32.4c0,4-.8,7.4-2.5,10.1-1.6,2.7-3.9,4.8-6.7,6.3-2.8,1.4-6,2.1-9.6,2.1s-3.6-.2-5.5-.7c-1.9-.4-3.6-1-4.9-1.7-1.4-.7-2.2-1.4-2.4-2.2-.3-.4-.5-.9-.5-1.3s.2-.8.6-1.1,1-.4,1.5-.1c.6.3,1.4.6,2.5,1.1.4.1,1.1.4,2,.7s1.9.6,3.1.8,2.4.3,3.6.3c4.5,0,8-1.3,10.5-3.9,2.5-2.6,3.7-6,3.7-10.1v-7.2l.8.2c-.4,1.8-1.2,3.4-2.2,4.7s-2.3,2.5-3.7,3.4c-1.4.9-2.9,1.6-4.5,2.1s-3.2.7-4.8.7c-3.4,0-6.6-.9-9.3-2.6-2.8-1.7-5-4.1-6.6-7.1s-2.4-6.4-2.4-10.3.8-7.2,2.4-10.2,3.8-5.4,6.5-7.1c2.7-1.7,5.8-2.6,9.3-2.6h.3ZM105.4,172.9c-2.7,0-5.1.7-7.3,2.1-2.2,1.4-3.9,3.2-5.1,5.6-1.2,2.4-1.8,5.1-1.8,8s.6,5.7,1.8,8.1,2.9,4.3,5.1,5.7,4.6,2.1,7.3,2.1,5.2-.7,7.3-2c2.1-1.3,3.8-3.2,5.1-5.6,1.2-2.4,1.9-5.1,1.9-8.2s-.6-5.8-1.9-8.2c-1.2-2.4-2.9-4.2-5.1-5.5-2.1-1.3-4.6-2-7.3-2h0Z"/>
    <path class="st2" d="M170.9,168.7c3.3,0,5.9.7,7.9,2s3.4,3.1,4.3,5.4c.9,2.3,1.3,4.8,1.3,7.5v22c0,.6-.2,1.1-.7,1.6s-1,.7-1.6.7-1.2-.2-1.6-.7c-.4-.4-.6-1-.6-1.6v-21.8c0-2-.3-3.8-1-5.5-.6-1.6-1.7-3-3.2-4s-3.4-1.5-5.8-1.5-4.2.5-6.1,1.5c-1.9,1-3.5,2.3-4.7,4-1.2,1.6-1.8,3.5-1.8,5.5v21.8c0,.6-.2,1.1-.7,1.6s-1,.7-1.6.7-1.2-.2-1.6-.7c-.4-.4-.6-1-.6-1.6v-33.5c0-.6.2-1.1.6-1.6.4-.4,1-.7,1.6-.7s1.2.2,1.6.7c.4.4.6,1,.6,1.6v6.3l-1.7,2.7c0-1.6.6-3.1,1.5-4.6s2.1-2.8,3.6-4c1.4-1.2,3.1-2.1,4.8-2.8,1.8-.7,3.6-1,5.4-1h.1Z"/>
    <path class="st2" d="M244.4,169.5c.6,0,1.2.2,1.6.7.4.4.6,1,.6,1.6v33.7c0,.6-.2,1.1-.7,1.6s-1,.7-1.6.7-1.2-.2-1.6-.7c-.4-.4-.6-1-.6-1.6v-8.9l1.3-.6c0,1.4-.4,2.8-1.2,4.3-.8,1.4-1.8,2.8-3.2,4-1.3,1.2-2.9,2.3-4.8,3-1.8.8-3.8,1.2-6,1.2-3.3,0-6.4-.9-9-2.6-2.7-1.7-4.8-4.1-6.3-7.2-1.5-3-2.3-6.5-2.3-10.3s.8-7.3,2.3-10.3,3.6-5.3,6.3-7c2.6-1.7,5.6-2.5,8.9-2.5s4.2.4,6,1.1c1.9.7,3.5,1.8,4.9,3.1s2.5,2.8,3.3,4.5,1.2,3.4,1.2,5.2l-1.6-1.1v-9.5c0-.6.2-1.2.6-1.6s.9-.7,1.6-.7h.3ZM228.9,204.4c2.6,0,5-.7,7-2.1,2-1.4,3.7-3.3,4.8-5.7,1.2-2.4,1.8-5.1,1.8-8.1s-.6-5.6-1.8-7.9c-1.2-2.3-2.8-4.2-4.8-5.6-2-1.4-4.4-2.1-7-2.1s-4.9.7-7,2-3.7,3.2-4.9,5.5-1.8,5-1.8,8.1.6,5.7,1.7,8.1c1.1,2.4,2.8,4.3,4.8,5.7,2.1,1.4,4.4,2.1,7.1,2.1h0Z"/>
    <path class="st2" d="M292.3,168.7c2.4,0,4.6.3,6.6.8s3.6,1.2,4.8,2.1c1.2.9,1.8,1.9,1.8,2.9s-.2,1-.6,1.5-.8.7-1.4.7-1.2-.1-1.5-.4c-.4-.3-.7-.6-1.1-1s-.9-.8-1.6-1.1c-.6-.3-1.6-.6-2.8-.8-1.2-.2-2.6-.4-4.1-.4-2.8,0-5.3.7-7.6,2.1-2.2,1.4-4,3.3-5.3,5.7s-1.9,5-1.9,8,.6,5.7,1.8,8.1c1.2,2.4,2.9,4.3,5.2,5.7,2.2,1.4,4.8,2.1,7.7,2.1s3.6-.2,4.7-.5,2.1-.7,2.8-1.2c1-.5,1.7-1.1,2.1-1.6s1-.8,1.7-.8,1.1.2,1.4.6c.3.4.5.9.5,1.5s-.6,1.7-1.8,2.7c-1.2,1-2.8,1.8-4.8,2.5s-4.4,1.1-7.1,1.1-7-.9-9.8-2.6c-2.8-1.7-5-4.1-6.6-7.2-1.6-3-2.4-6.4-2.4-10.2s.8-7,2.4-10,3.8-5.4,6.7-7.2c2.8-1.8,6.2-2.7,10-2.7l.2-.4Z"/>
  </g>
  <g>
    <line class="st3" x1="172.2" y1="121.9" x2="185.9" y2="110"/>
    <line class="st0" x1="223.4" y1="64.6" x2="230.2" y2="58.8"/>
    <line class="st0" x1="167.2" y1="112.9" x2="185.9" y2="96.9"/>
    <line class="st1" x1="152.2" y1="125.9" x2="160.9" y2="118.4"/>
    <line class="st3" x1="205.9" y1="66.5" x2="230.2" y2="45.5"/>
    <line class="st0" x1="164.2" y1="102.1" x2="180.4" y2="88.4"/>
    <line class="st3" x1="135.9" y1="126.5" x2="157.1" y2="108.4"/>
    <line class="st0" x1="213.7" y1="46.5" x2="226.6" y2="35.5"/>
    <line class="st3" x1="186.4" y1="70" x2="206.7" y2="52.5"/>
    <line class="st3" x1="161.9" y1="91.1" x2="175.6" y2="79.4"/>
    <line class="st0" x1="153.2" y1="98.5" x2="155.2" y2="96.9"/>
    <line class="st3" x1="122.5" y1="125" x2="146.6" y2="104.2"/>
    <line class="st1" x1="218.1" y1="29.5" x2="220.4" y2="27.5"/>
    <line class="st0" x1="192.2" y1="51.8" x2="209.9" y2="36.6"/>
    <line class="st1" x1="169.4" y1="71.5" x2="184.7" y2="58.3"/>
    <line class="st3" x1="132.1" y1="103.5" x2="162.9" y2="77"/>
    <line class="st0" x1="110.6" y1="121.9" x2="124.5" y2="110"/>
    <line class="st3" x1="200.7" y1="31.3" x2="212.9" y2="20.8"/>
    <line class="st1" x1="175.1" y1="53.3" x2="195.1" y2="36.1"/>
    <line class="st0" x1="165.6" y1="61.5" x2="168.9" y2="58.6"/>
    <line class="st3" x1="137.9" y1="85.1" x2="148.9" y2="75.7"/>
    <line class="st0" x1="109.1" y1="110" x2="130.7" y2="91.5"/>
    <line class="st3" x1="100.5" y1="117.4" x2="102.1" y2="116"/>
    <line class="st3" x1="185.9" y1="30.8" x2="204.2" y2="15"/>
    <line class="st3" x1="159.7" y1="53.3" x2="179.1" y2="36.6"/>
    <line class="st1" x1="111.1" y1="95" x2="138.7" y2="71.4"/>
    <line class="st3" x1="91.6" y1="111.9" x2="104.1" y2="101"/>
    <line class="st1" x1="189.2" y1="14.7" x2="194.4" y2="10.4"/>
    <line class="st0" x1="159.7" y1="40.1" x2="182.7" y2="20.3"/>
    <line class="st3" x1="145.2" y1="52.5" x2="153.6" y2="45.3"/>
    <line class="st0" x1="121.5" y1="72.9" x2="137.9" y2="58.8"/>
    <line class="st3" x1="99.1" y1="92.1" x2="114.1" y2="79.2"/>
    <line class="st1" x1="83.9" y1="105.2" x2="92.2" y2="98"/>
    <line class="st0" x1="168.4" y1="19.4" x2="183.2" y2="6.7"/>
    <line class="st1" x1="143.1" y1="41.1" x2="161.7" y2="25"/>
    <line class="st3" x1="104.5" y1="74.2" x2="135.9" y2="47.3"/>
    <line class="st0" x1="96.5" y1="81.1" x2="97.7" y2="80"/>
    <line class="st3" x1="77.4" y1="97.5" x2="90" y2="86.7"/>
    <line class="st3" x1="143.6" y1="27.5" x2="170.7" y2="4.2"/>
    <line class="st0" x1="129.7" y1="39.5" x2="136.9" y2="33.1"/>
    <line class="st3" x1="101.2" y1="63.8" x2="122.7" y2="45.3"/>
    <line class="st0" x1="72.2" y1="88.7" x2="93.1" y2="70.9"/>
    <line class="st0" x1="145.2" y1="12.9" x2="156.7" y2="3"/>
    <line class="st3" x1="113.1" y1="40.3" x2="137.6" y2="19.4"/>
    <line class="st0" x1="85.9" y1="63.8" x2="106.1" y2="46.5"/>
    <line class="st1" x1="68.6" y1="78.5" x2="79.2" y2="69.5"/>
    <line class="st0" x1="110" y1="29.9" x2="140.9" y2="3.5"/>
    <line class="st3" x1="91.7" y1="45.5" x2="103.7" y2="35.3"/>
    <line class="st3" x1="67.2" y1="66.5" x2="85.2" y2="51.1"/>
    <line class="st1" x1="110.6" y1="16.2" x2="122.7" y2="5.7"/>
    <line class="st0" x1="79.6" y1="42.8" x2="104.1" y2="21.8"/>
    <line class="st1" x1="69.1" y1="51.8" x2="73.1" y2="48.3"/>
    <line class="st3" x1="81.1" y1="28.3" x2="96.2" y2="15.2"/>
  </g>
</svg>
